            <svg
              className="notActive"
              width="55"
              height="55"
              viewBox="0 0 55 55"
              fill="none"
              xmlns="http://www.w3.org/2000/svg"
            >
              <path
                d="M27.8578 53.7228C42.486 53.7228 54.3444 41.8608 54.3444 27.2282C54.3444 12.5957 42.486 0.733643 27.8578 0.733643C13.2296 0.733643 1.37109 12.5957 1.37109 27.2282C1.37109 41.8608 13.2296 53.7228 27.8578 53.7228Z"
                fill="url(#paint0_linear_278_708)"
                stroke="url(#paint1_linear_278_708)"
                stroke-miterlimit="10"
              />
              <path
                d="M18.9066 19.932L21.5281 20.0543V36.4537L18.8795 36.6847V41.182H18.2139C18.1596 40.4891 18.0645 39.7961 18.0373 39.1168C18.0101 38.3559 18.0373 37.595 18.0373 36.6847L15.5109 36.4809V20.0815L17.9151 19.932L18.2139 15.3804L18.9202 15.4211V19.9456L18.9066 19.932Z"
                fill="white"
              />
              <path
                d="M40.2182 12.826V33.3967L37.8412 33.5054L37.488 36.5217H36.8904L36.5644 33.5462L34.2146 33.3967V12.826L36.5237 12.663L36.904 9.52441H37.5016L37.8276 12.6494L40.2182 12.8125V12.826ZM39.1859 32.3913V13.8722H35.1925V32.3777H39.1859V32.3913Z"
                fill="white"
              />
              <path
                d="M27.2329 41.7798L24.8424 41.6304V27.2689H27.4774V22.038H28.1158V27.1195L30.846 27.2961V41.6032L28.4147 41.807L28.1973 44.8912L27.6268 44.9184L27.2194 41.7798H27.2329ZM29.7594 40.6113V28.3423H25.9561V40.6113H29.7594Z"
                fill="white"
              />
              <defs>
                <linearGradient
                  id="paint0_linear_278_708"
                  x1="1.37109"
                  y1="27.2282"
                  x2="54.3444"
                  y2="27.2282"
                  gradientUnits="userSpaceOnUse"
                >
                  <stop stop-color="#FF007B" />
                  <stop offset="1" stop-color="#7D009A" />
                </linearGradient>
                <linearGradient
                  id="paint1_linear_278_708"
                  x1="0.691948"
                  y1="27.2282"
                  x2="55.0236"
                  y2="27.2282"
                  gradientUnits="userSpaceOnUse"
                >
                  <stop stop-color="#FF007B" />
                  <stop offset="1" stop-color="#7D009A" />
                </linearGradient>
              </defs>
            </svg>