            <svg
              className="notActive"
              width="55"
              height="55"
              viewBox="0 0 55 55"
              fill="none"
              xmlns="http://www.w3.org/2000/svg"
            >
              <path
                d="M27.6869 53.6685C42.3151 53.6685 54.1735 41.8065 54.1735 27.1739C54.1735 12.5414 42.3151 0.679352 27.6869 0.679352C13.0587 0.679352 1.2002 12.5414 1.2002 27.1739C1.2002 41.8065 13.0587 53.6685 27.6869 53.6685Z"
                fill="url(#paint0_linear_87_3303)"
                stroke="url(#paint1_linear_87_3303)"
                stroke-miterlimit="10"
              />
              <path
                d="M39.6943 14.0082C39.2732 14.0082 38.9472 14.3478 38.9472 14.7554V20.8152C36.7468 16.644 32.4817 13.9946 27.687 13.9946C20.651 13.9946 14.9326 19.7147 14.9326 26.7527C14.9326 27.1739 15.2722 27.5 15.6797 27.5C16.0872 27.5 16.4267 27.1603 16.4267 26.7527C16.4267 20.5435 21.4796 15.4891 27.687 15.4891C31.9113 15.4891 35.6737 17.8261 37.6161 21.4946H32.1965C31.7754 21.4946 31.4494 21.8342 31.4494 22.2419C31.4494 22.6495 31.789 22.9891 32.1965 22.9891H39.7078C40.1289 22.9891 40.4549 22.6495 40.4549 22.2419V14.7283C40.4549 14.3071 40.1153 13.981 39.7078 13.981L39.6943 14.0082Z"
                fill="white"
              />
              <path
                d="M39.6942 26.019C39.2731 26.019 38.9471 26.3587 38.9471 26.7663C38.9471 32.9756 33.8943 38.0299 27.6869 38.0299C23.4626 38.0299 19.7001 35.693 17.7578 32.0245H23.1774C23.5984 32.0245 23.9244 31.6848 23.9244 31.2772C23.9244 30.8696 23.5848 30.5299 23.1774 30.5299H15.666C15.2449 30.5299 14.9189 30.8696 14.9189 31.2772V38.7908C14.9189 39.212 15.2585 39.5381 15.666 39.5381C16.0735 39.5381 16.4131 39.1984 16.4131 38.7908V32.731C18.6135 36.9022 22.8785 39.5517 27.6733 39.5517C34.7092 39.5517 40.4277 33.8315 40.4277 26.7935C40.4277 26.3723 40.0881 26.0462 39.6806 26.0462L39.6942 26.019Z"
                fill="white"
              />
              <defs>
                <linearGradient
                  id="paint0_linear_87_3303"
                  x1="1.2002"
                  y1="27.1739"
                  x2="54.1735"
                  y2="27.1739"
                  gradientUnits="userSpaceOnUse"
                >
                  <stop stop-color="#FF007B" />
                  <stop offset="1" stop-color="#7D009A" />
                </linearGradient>
                <linearGradient
                  id="paint1_linear_87_3303"
                  x1="0.52105"
                  y1="4.62591e-06"
                  x2="54.8527"
                  y2="4.62591e-06"
                  gradientUnits="userSpaceOnUse"
                >
                  <stop stop-color="#FF007B" />
                  <stop offset="1" stop-color="#7D009A" />
                </linearGradient>
              </defs>
            </svg>