            <svg
              className="notActive"
              width="55"
              height="55"
              viewBox="0 0 55 55"
              fill="none"
              xmlns="http://www.w3.org/2000/svg"
            >
              <path
                d="M27.3646 54.1168C41.9928 54.1168 53.8513 42.2548 53.8513 27.6223C53.8513 12.9897 41.9928 1.12769 27.3646 1.12769C12.7364 1.12769 0.87793 12.9897 0.87793 27.6223C0.87793 42.2548 12.7364 54.1168 27.3646 54.1168Z"
                fill="url(#paint0_linear_303_2)"
                stroke="url(#paint1_linear_303_2)"
                stroke-miterlimit="10"
              />
              <g clip-path="url(#clip0_303_2)">
                <path
                  d="M30.752 42.0925C30.6775 40.5644 31.9673 39.1466 33.4652 39.0363C35.2046 38.9081 36.6512 40.1875 36.7411 41.9002C36.8233 43.4847 35.5053 44.9282 33.9251 44.9948C32.2114 45.0692 30.8368 43.8103 30.7546 42.0899L30.752 42.0925ZM32.4349 42.0156C32.4349 42.736 33.0156 43.3206 33.7375 43.3257C34.457 43.3309 35.0428 42.7514 35.0479 42.0258C35.053 41.2874 34.4621 40.69 33.7324 40.6952C33.013 40.7029 32.4349 41.29 32.4349 42.013V42.0156Z"
                  fill="white"
                />
                <path
                  d="M20.2665 42.0284C20.2537 40.3798 21.582 39.0414 23.2418 39.0337C24.8965 39.026 26.2479 40.3516 26.2557 41.9976C26.2659 43.618 24.9222 44.9846 23.3061 44.9999C21.6308 45.0153 20.2794 43.6949 20.264 42.0284H20.2665ZM24.5625 41.9976C24.5547 41.2771 23.9638 40.6926 23.2495 40.6977C22.5198 40.7028 21.934 41.3079 21.9469 42.0438C21.9597 42.7565 22.5687 43.3411 23.2804 43.3231C24.0101 43.3052 24.5702 42.7258 24.5625 41.995V41.9976Z"
                  fill="white"
                />
                <path
                  d="M42.9409 20.2224C42.6249 19.3815 42.0827 18.9943 41.1835 18.9892C39.9245 18.9841 38.6655 18.9892 37.4066 18.9892C37.4811 19.4507 37.5222 19.9225 37.5222 20.4045C37.5222 20.5019 37.517 20.5993 37.5145 20.6968H41.3171C40.5437 24.4503 39.7729 28.1834 38.9918 31.9677H38.6141C31.8774 31.9677 25.138 31.9677 18.4012 31.9754C18.1032 31.9754 17.9927 31.9036 17.931 31.5985C17.2039 28.0167 16.4562 24.4401 15.7162 20.8608C15.7085 20.8198 15.7162 20.7737 15.7162 20.6968H20.0584C20.0558 20.5993 20.0507 20.5045 20.0507 20.4045C20.0507 19.9225 20.0918 19.4507 20.1663 18.9892H15.3334C15.1664 18.1867 14.9943 17.4047 14.8452 16.6201C14.7168 15.9484 14.3571 15.4818 13.725 15.2126C12.538 14.7075 11.3535 14.1921 10.169 13.6793C10.1305 13.6639 10.0997 13.6332 10.0663 13.6101H9.60123C9.23638 13.8127 8.95375 14.0716 9.00514 14.5382C9.05653 14.9895 9.38797 15.1715 9.75796 15.3279C10.7831 15.7638 11.8006 16.2202 12.8309 16.6458C13.0904 16.7535 13.1932 16.9099 13.2445 17.1662C14.5472 23.4965 15.855 29.8243 17.1602 36.1546C17.376 37.2058 17.9798 37.7006 19.0641 37.7006C25.5722 37.7006 32.0778 37.7006 38.5859 37.7006C38.74 37.7006 38.8968 37.6878 39.0458 37.6519C39.4106 37.5673 39.6573 37.257 39.6727 36.893C39.6907 36.5109 39.4646 36.1699 39.092 36.0674C38.9148 36.0187 38.7221 36.0084 38.5345 36.0084C32.1163 36.0059 25.6981 36.0084 19.2799 36.0084H18.8431C18.6813 35.2187 18.5245 34.4598 18.3575 33.6599H18.8174C25.4026 33.6599 31.9853 33.6599 38.5705 33.6599C38.7041 33.6599 38.8351 33.665 38.9687 33.6573C39.8603 33.6086 40.4718 33.1035 40.6491 32.242C41.2554 29.3217 41.8541 26.3963 42.4579 23.476C42.6274 22.6607 42.815 21.8454 42.9923 21.0326V20.3045C42.9717 20.2788 42.9435 20.2583 42.9332 20.2301L42.9409 20.2224Z"
                  fill="white"
                />
                <path
                  d="M28.7864 29.8063C23.5913 29.8063 19.3647 25.5886 19.3647 20.4044C19.3647 15.2202 23.5887 11 28.7864 11C33.9842 11 38.2082 15.2176 38.2082 20.4019C38.2082 25.5861 33.9816 29.8037 28.7864 29.8037V29.8063ZM28.7864 12.3691C24.3466 12.3691 20.7367 15.974 20.7367 20.4019C20.7367 24.8297 24.3492 28.4346 28.7864 28.4346C33.2237 28.4346 36.8362 24.8297 36.8362 20.4019C36.8362 15.974 33.2263 12.3691 28.7864 12.3691Z"
                  fill="white"
                />
                <path
                  d="M26.474 18.0739V22.9325H25.5491L23.1211 19.9814V22.9325H22.0085V18.0739H22.9412L25.3615 21.0249V18.0739H26.474V18.0739Z"
                  fill="white"
                />
                <path
                  d="M28.7556 18.9763V20.2609H31.0089V21.1634H28.7556V22.9325H27.6277V18.0739H31.307V18.9763H28.753H28.7556Z"
                  fill="white"
                />
                <path
                  d="M33.1183 18.9892H31.5588V18.0739H35.8033V18.9892H34.2437V22.9325H33.1158V18.9892H33.1183Z"
                  fill="white"
                />
              </g>
              <defs>
                <linearGradient
                  id="paint0_linear_303_2"
                  x1="0.87793"
                  y1="27.6223"
                  x2="53.8513"
                  y2="27.6223"
                  gradientUnits="userSpaceOnUse"
                >
                  <stop stop-color="#FF007B" />
                  <stop offset="1" stop-color="#7D009A" />
                </linearGradient>
                <linearGradient
                  id="paint1_linear_303_2"
                  x1="0.198784"
                  y1="27.6223"
                  x2="54.5304"
                  y2="27.6223"
                  gradientUnits="userSpaceOnUse"
                >
                  <stop stop-color="#FF007B" />
                  <stop offset="1" stop-color="#7D009A" />
                </linearGradient>
                <clipPath id="clip0_303_2">
                  <rect
                    width="34"
                    height="34"
                    fill="white"
                    transform="translate(9 11)"
                  />
                </clipPath>
              </defs>
            </svg>