            <svg
              className="notActive"
              width="55"
              height="55"
              viewBox="0 0 55 55"
              fill="none"
              xmlns="http://www.w3.org/2000/svg"
            >
              <path
                d="M27.4867 54.1168C42.1148 54.1168 53.9733 42.2548 53.9733 27.6223C53.9733 12.9897 42.1148 1.12769 27.4867 1.12769C12.8585 1.12769 1 12.9897 1 27.6223C1 42.2548 12.8585 54.1168 27.4867 54.1168Z"
                fill="url(#paint0_linear_303_3)"
                stroke="url(#paint1_linear_303_3)"
                stroke-miterlimit="10"
              />
              <g clip-path="url(#clip0_303_3)">
                <path
                  d="M40.6763 32.7668C41.6891 28.9901 42.6999 25.2117 43.7383 21.3359C43.3024 21.3124 43.0039 21.2746 42.7091 21.2872C42.178 21.307 41.9363 21.1213 41.9491 20.5549C41.9601 20.0157 42.2293 19.9183 42.6944 19.8966C44.5788 19.8119 45.3205 20.6541 44.8737 22.427C43.4837 27.9531 42.0919 33.4792 40.6928 39.0017C40.3174 40.4842 39.6453 40.9964 38.0979 40.9964C30.1977 41 22.2956 41 14.3954 40.9964C12.6886 40.9964 12.0055 40.3309 12.0055 38.65C12 31.5314 11.9982 24.4109 12.0055 17.2905C12.0074 15.6547 12.6849 15.0018 14.3459 15C22.2773 15 30.2086 15 38.14 15C39.8266 15 40.4731 15.6168 40.4767 17.2779C40.4859 22.115 40.4804 26.9521 40.4804 31.7893C40.4804 32.1139 40.4804 32.4403 40.4804 32.765H40.6763V32.7668ZM26.2366 39.66C30.172 39.66 34.1075 39.6473 38.0411 39.6708C38.8139 39.6762 39.1197 39.4507 39.1161 38.6428C39.0904 31.553 39.0886 24.4632 39.1179 17.3735C39.1216 16.5114 38.7919 16.3058 37.9843 16.3094C30.1445 16.331 22.3048 16.3292 14.4668 16.3094C13.683 16.3076 13.401 16.5402 13.4046 17.3392C13.4303 24.429 13.4339 31.5187 13.401 38.6085C13.3973 39.476 13.7196 39.678 14.5236 39.6708C18.4279 39.6437 22.3322 39.6582 26.2366 39.6582V39.66Z"
                  fill="white"
                />
                <path
                  d="M21.2243 26.3749C19.7903 26.3749 18.3564 26.3569 16.9225 26.3822C16.2688 26.393 15.9757 26.1693 15.9886 25.4948C16.0179 23.9924 16.0197 22.4901 15.9886 20.9877C15.9757 20.3511 16.2468 20.1328 16.8548 20.1347C19.783 20.1437 22.7131 20.1473 25.6413 20.1328C26.2896 20.1292 26.4782 20.4124 26.4654 21.0148C26.4343 22.4558 26.4196 23.9005 26.4709 25.3415C26.4984 26.1188 26.253 26.42 25.4362 26.3894C24.0353 26.3371 22.6307 26.3749 21.2261 26.3749H21.2243Z"
                  fill="white"
                />
                <path
                  d="M26.2054 36.0781C23.2167 36.0781 20.228 36.0763 17.2393 36.0799C16.7266 36.0799 16.2633 36.1124 16.2688 35.3675C16.2743 34.5974 16.7797 34.693 17.2668 34.693C23.3064 34.693 29.3442 34.693 35.3839 34.693C35.8618 34.693 36.3837 34.5739 36.4002 35.3495C36.4185 36.1719 35.8728 36.0745 35.3545 36.0745C32.3054 36.0745 29.2545 36.0745 26.2054 36.0745V36.0781Z"
                  fill="white"
                />
                <path
                  d="M26.3739 29.8559C29.39 29.8559 32.4062 29.8559 35.4223 29.8559C35.9204 29.8559 36.4112 29.7892 36.4021 30.5485C36.3947 31.2428 35.9607 31.2122 35.4827 31.2104C29.39 31.2068 23.2954 31.2158 17.2027 31.1887C16.8969 31.1887 16.4024 30.9597 16.3255 30.7288C16.1149 30.1084 16.4464 29.8361 17.1405 29.8433C20.0339 29.8721 22.9292 29.8559 25.8245 29.8541C26.0076 29.8541 26.1907 29.8541 26.372 29.8541L26.3739 29.8559Z"
                  fill="white"
                />
                <path
                  d="M32.9372 20.1383C33.8492 20.1383 34.7612 20.1491 35.6714 20.1329C36.164 20.1239 36.3892 20.2952 36.3801 20.811C36.3709 21.2998 36.2024 21.5126 35.6842 21.5072C33.8602 21.4891 32.0381 21.4909 30.2141 21.5072C29.7068 21.5126 29.5164 21.325 29.5109 20.8218C29.5036 20.315 29.6995 20.1221 30.2031 20.1329C31.1151 20.1509 32.0271 20.1383 32.9372 20.1383Z"
                  fill="white"
                />
                <path
                  d="M32.9372 24.9881C33.8511 24.9881 34.763 25.0008 35.675 24.9827C36.1786 24.9737 36.3856 25.1703 36.3782 25.6735C36.3709 26.155 36.2153 26.3859 35.6878 26.3805C33.862 26.3642 32.0362 26.3642 30.2104 26.3805C29.6958 26.3859 29.5164 26.1821 29.5109 25.6861C29.5036 25.1865 29.6885 24.9737 30.1976 24.9827C31.1096 24.9989 32.0234 24.9863 32.9354 24.9863L32.9372 24.9881Z"
                  fill="white"
                />
              </g>
              <defs>
                <linearGradient
                  id="paint0_linear_303_3"
                  x1="1"
                  y1="27.6223"
                  x2="53.9733"
                  y2="27.6223"
                  gradientUnits="userSpaceOnUse"
                >
                  <stop stop-color="#FF007B" />
                  <stop offset="1" stop-color="#7D009A" />
                </linearGradient>
                <linearGradient
                  id="paint1_linear_303_3"
                  x1="0.320855"
                  y1="27.6223"
                  x2="54.6525"
                  y2="27.6223"
                  gradientUnits="userSpaceOnUse"
                >
                  <stop stop-color="#FF007B" />
                  <stop offset="1" stop-color="#7D009A" />
                </linearGradient>
                <clipPath id="clip0_303_3">
                  <rect
                    width="33"
                    height="26"
                    fill="white"
                    transform="translate(12 15)"
                  />
                </clipPath>
              </defs>
            </svg>