            <svg
              className="notActive"
              width="54"
              height="54"
              viewBox="0 0 54 54"
              fill="none"
              xmlns="http://www.w3.org/2000/svg"
            >
              <path
                d="M26.9362 53.3263C41.5095 53.3263 53.3235 41.5631 53.3235 27.0524C53.3235 12.5418 41.5095 0.778534 26.9362 0.778534C12.3628 0.778534 0.548828 12.5418 0.548828 27.0524C0.548828 41.5631 12.3628 53.3263 26.9362 53.3263Z"
                fill="url(#paint0_linear_87_3383)"
                stroke="url(#paint1_linear_87_3383)"
                stroke-miterlimit="10"
              />
              <path
                d="M28.4925 41.1999H25.3801C25.3801 41.1999 25.3395 41.1595 25.3125 41.1595C24.487 40.9574 24.054 40.4184 23.9187 39.5965C23.8375 39.0576 23.7292 38.5321 23.648 37.9931C23.621 37.8315 23.5533 37.7371 23.3909 37.6833C22.8902 37.4946 22.4031 37.279 21.9024 37.0904C21.8077 37.05 21.6453 37.0635 21.5641 37.1174C21.077 37.4407 20.6169 37.791 20.1297 38.1144C19.3043 38.6938 18.4382 38.6264 17.721 37.9123C17.1662 37.3734 16.6249 36.8344 16.0972 36.2955C15.38 35.5679 15.3123 34.7055 15.9078 33.8702C16.219 33.4255 16.5437 32.9809 16.8685 32.5497C16.9768 32.4015 16.9903 32.2937 16.9091 32.1321C16.6791 31.647 16.4761 31.1619 16.2866 30.6634C16.219 30.4748 16.1107 30.4074 15.9348 30.3805C15.3665 30.2861 14.7981 30.2188 14.2433 30.084C13.9591 30.0167 13.6614 29.8954 13.4043 29.7472C12.9984 29.5047 12.8495 29.087 12.7007 28.6558V25.5568C12.7007 25.5568 12.7412 25.476 12.7548 25.4356C12.9713 24.681 13.4855 24.2634 14.2433 24.1286C14.7981 24.0343 15.3529 23.94 15.9078 23.8591C16.0837 23.8322 16.1513 23.7648 16.219 23.6031C16.422 23.0911 16.625 22.5791 16.855 22.0806C16.9227 21.9324 16.8956 21.8381 16.8144 21.7168C16.4761 21.2587 16.1378 20.7871 15.813 20.329C15.2311 19.5071 15.2988 18.6448 16.0025 17.9307C16.5438 17.3783 17.0986 16.8258 17.6534 16.2869C18.3706 15.5862 19.2501 15.5323 20.0756 16.0982C20.5221 16.4216 20.9822 16.745 21.4288 17.0684C21.5641 17.1627 21.6724 17.1761 21.8212 17.1088C22.3219 16.8797 22.8226 16.6641 23.3233 16.4755C23.4992 16.4081 23.5668 16.3138 23.5939 16.1387C23.6886 15.5728 23.7833 15.0069 23.8781 14.4544C24.0269 13.5517 24.69 12.9454 25.5831 12.9184C26.4491 12.905 27.3287 12.905 28.1948 12.9184C29.0067 12.9319 29.6562 13.4709 29.8322 14.2523C29.9675 14.8587 30.0622 15.4784 30.1569 16.0982C30.184 16.2599 30.2381 16.3542 30.4005 16.4081C30.9418 16.6102 31.483 16.8393 32.0108 17.0684C32.1596 17.1357 32.2544 17.1223 32.3897 17.0279C32.8498 16.6911 33.3099 16.3677 33.77 16.0443C34.5954 15.465 35.4615 15.5323 36.1787 16.233C36.7335 16.7719 37.2747 17.3109 37.816 17.8498C38.5332 18.5774 38.6008 19.4397 38.0054 20.2751C37.6807 20.7332 37.3424 21.1779 37.0311 21.6494C36.977 21.7303 36.9635 21.892 36.9905 21.9863C37.1935 22.5118 37.4236 23.0238 37.6265 23.5492C37.6807 23.6975 37.7754 23.7648 37.9242 23.7918C38.4926 23.8861 39.0609 23.9535 39.6157 24.0882C39.9405 24.169 40.2653 24.3173 40.5359 24.4924C40.8878 24.7215 41.0231 25.1257 41.1584 25.5164V28.6154C41.1584 28.6154 41.1178 28.6962 41.1043 28.7367C40.8878 29.4912 40.3871 29.9089 39.6157 30.0436C39.0474 30.1379 38.4926 30.2322 37.9242 30.3131C37.7483 30.34 37.6672 30.4074 37.613 30.5691C37.4101 31.0676 37.207 31.5796 36.9905 32.0647C36.9093 32.2264 36.9364 32.3476 37.0311 32.4824C37.3559 32.927 37.6807 33.3716 38.0054 33.8297C38.5873 34.6516 38.5197 35.514 37.8296 36.2281C37.2883 36.7805 36.7335 37.3329 36.1787 37.8719C35.4615 38.5725 34.5819 38.6399 33.77 38.0605C33.2963 37.7371 32.8362 37.3868 32.3626 37.0769C32.2814 37.023 32.1326 37.0096 32.0514 37.05C31.5236 37.2521 30.9824 37.4677 30.4682 37.7102C30.3734 37.7506 30.2652 37.8854 30.2381 38.0066C30.1298 38.559 30.0486 39.1249 29.9404 39.6908C29.8321 40.3511 29.4803 40.8226 28.8579 41.0921C28.7361 41.146 28.6143 41.1864 28.4925 41.2269V41.1999ZM36.8147 19.1568C36.747 19.076 36.7064 18.9951 36.6387 18.9412C36.1245 18.4292 35.6103 17.9307 35.1096 17.4187C34.9472 17.2435 34.8254 17.2435 34.636 17.3917C34.0406 17.8364 33.4317 18.2541 32.8363 18.6852C32.5115 18.9143 32.1732 18.9682 31.8214 18.7661C31.0365 18.3214 30.211 17.9846 29.345 17.7555C28.9796 17.6612 28.7766 17.4052 28.709 17.0414C28.5872 16.3004 28.4519 15.5593 28.3301 14.8048C28.303 14.5892 28.2083 14.5083 27.9918 14.5083C27.2746 14.5083 26.5709 14.5218 25.8538 14.5083C25.5966 14.5083 25.4884 14.5892 25.4478 14.8317C25.3395 15.5323 25.2042 16.233 25.096 16.9336C25.0283 17.4052 24.7847 17.6747 24.3246 17.8364C23.5668 18.1058 22.8361 18.4292 22.1054 18.7661C21.6859 18.9547 21.3476 18.9682 20.9687 18.6987C20.3868 18.2675 19.7779 17.8498 19.1825 17.4321C19.0065 17.3109 18.8983 17.2974 18.7359 17.4591C18.2217 17.9846 17.7075 18.4966 17.1798 19.0086C17.0174 19.1568 17.0174 19.2781 17.1392 19.4532C17.5722 20.0461 17.9782 20.6389 18.4112 21.2318C18.6953 21.6225 18.7089 21.9728 18.4924 22.404C18.1541 23.1046 17.8564 23.8322 17.5992 24.5733C17.4369 25.0583 17.1662 25.3008 16.6655 25.3817C15.9619 25.476 15.2582 25.6107 14.5546 25.7185C14.3516 25.7455 14.2704 25.8398 14.2704 26.0419C14.2704 26.7695 14.2704 27.4971 14.2704 28.2247C14.2704 28.4672 14.3786 28.5346 14.5952 28.575C15.3259 28.6962 16.0566 28.831 16.7873 28.9388C17.2203 29.0061 17.491 29.2352 17.5992 29.6529C17.8158 30.4478 18.1405 31.2024 18.56 31.903C18.79 32.2937 18.763 32.6441 18.4924 33.0078C18.0593 33.6007 17.6534 34.1935 17.2068 34.7864C17.0715 34.975 17.085 35.0963 17.2474 35.258C17.7616 35.7565 18.2758 36.2685 18.7765 36.7805C18.9254 36.9422 19.0472 36.9557 19.2231 36.8209C19.8185 36.3898 20.4139 35.9856 21.0093 35.5544C21.4017 35.2714 21.7536 35.258 22.2001 35.4735C22.8902 35.7969 23.5939 36.0933 24.3246 36.3359C24.8118 36.4976 25.0554 36.7805 25.123 37.279C25.2177 37.9797 25.3531 38.6803 25.4613 39.3809C25.4884 39.5831 25.5831 39.6639 25.7996 39.6504C26.5168 39.6504 27.2475 39.6504 27.9647 39.6504C28.2083 39.6504 28.303 39.5696 28.3436 39.3271C28.4519 38.5995 28.5872 37.8719 28.709 37.1443C28.7766 36.7266 29.0067 36.4706 29.4262 36.3628C30.2246 36.1472 30.9823 35.8373 31.6995 35.4197C32.1055 35.1906 32.4574 35.2175 32.8363 35.487C33.4181 35.9182 34.027 36.3224 34.6224 36.7536C34.7984 36.8748 34.9202 36.8883 35.069 36.7266C35.5832 36.2011 36.0974 35.6891 36.6252 35.1771C36.7876 35.0289 36.7876 34.8942 36.6522 34.719C36.2192 34.1262 35.8133 33.5333 35.3802 32.9405C35.1096 32.5767 35.1096 32.2264 35.299 31.8087C35.6509 31.0811 35.9621 30.3266 36.2327 29.572C36.3951 29.1409 36.6387 28.8983 37.0853 28.831C37.8025 28.7232 38.5061 28.5884 39.2233 28.4941C39.4534 28.4537 39.5616 28.3594 39.5481 28.1169C39.5481 27.4162 39.5346 26.7156 39.5481 26.015C39.5481 25.732 39.4399 25.6512 39.1827 25.6107C38.4656 25.5029 37.7619 25.3682 37.0447 25.2604C36.6117 25.1931 36.3816 24.9505 36.2327 24.5463C35.9486 23.7783 35.6374 23.0238 35.2855 22.2827C35.0961 21.8785 35.0961 21.5417 35.3532 21.1779C35.7862 20.5985 36.2057 19.9922 36.6252 19.3993C36.6793 19.332 36.7199 19.2511 36.774 19.1568H36.8147Z"
                fill="white"
              />
              <path
                d="M33.0796 27.0659C33.0796 30.4343 30.3191 33.156 26.9361 33.156C23.5396 33.156 20.7655 30.3939 20.8061 27.0389C20.8332 23.657 23.5937 20.9353 26.9496 20.9623C30.3462 20.9892 33.0931 23.7244 33.0796 27.0659ZM31.4828 27.0928C31.537 24.6541 29.5207 22.6195 26.9902 22.5522C24.5409 22.4848 22.4705 24.5059 22.4029 27.0255C22.3487 29.4777 24.4056 31.5392 26.9225 31.5661C29.3854 31.5931 31.4287 29.599 31.4828 27.0928Z"
                fill="white"
              />
              <defs>
                <linearGradient
                  id="paint0_linear_87_3383"
                  x1="0.548828"
                  y1="27.0524"
                  x2="53.3235"
                  y2="27.0524"
                  gradientUnits="userSpaceOnUse"
                >
                  <stop stop-color="#FF007B" />
                  <stop offset="1" stop-color="#7D009A" />
                </linearGradient>
                <linearGradient
                  id="paint1_linear_87_3383"
                  x1="-0.12777"
                  y1="27.0524"
                  x2="54.0001"
                  y2="27.0524"
                  gradientUnits="userSpaceOnUse"
                >
                  <stop stop-color="#FF007B" />
                  <stop offset="1" stop-color="#7D009A" />
                </linearGradient>
              </defs>
            </svg>