            <svg
              className="notActive"
              width="54"
              height="54"
              viewBox="0 0 54 54"
              fill="none"
              xmlns="http://www.w3.org/2000/svg"
            >
              <path
                d="M27.0641 53.2214C41.6374 53.2214 53.4514 41.4582 53.4514 26.9476C53.4514 12.4369 41.6374 0.673676 27.0641 0.673676C12.4908 0.673676 0.676758 12.4369 0.676758 26.9476C0.676758 41.4582 12.4908 53.2214 27.0641 53.2214Z"
                fill="url(#paint0_linear_87_3387)"
                stroke="url(#paint1_linear_87_3387)"
                stroke-miterlimit="10"
              />
              <path
                d="M27.0638 20.7092C30.122 23.2288 33.1396 25.6945 36.1166 28.1737C36.3196 28.3354 36.4549 28.6857 36.4549 28.9552C36.482 31.367 36.4549 33.7922 36.4685 36.2041C36.4685 36.9047 36.1302 37.3763 35.44 37.3897C33.3832 37.4302 31.3263 37.4032 29.1747 37.4032V31.2053H24.9798V37.4167C23.6402 37.4167 22.3817 37.4167 21.1232 37.4167C20.3654 37.4167 19.5941 37.4302 18.8363 37.4167C18.0244 37.3897 17.659 37.0125 17.6455 36.2041C17.6455 33.7922 17.6455 31.367 17.6455 28.9552C17.6455 28.7126 17.7538 28.3758 17.9297 28.2276C20.9338 25.7349 23.9649 23.2557 27.0502 20.7227L27.0638 20.7092Z"
                fill="white"
              />
              <path
                d="M32.3009 20.0625C32.3009 19.1328 32.3009 18.23 32.3009 17.3408C32.3009 16.7749 32.5174 16.5189 33.1128 16.5458C33.9517 16.5727 34.8043 16.5727 35.6568 16.5458C36.2792 16.5189 36.5093 16.7749 36.4958 17.3947C36.4687 19.1058 36.5499 20.8305 36.4687 22.5282C36.4281 23.4174 36.7123 23.9968 37.4159 24.4953C38.2549 25.1017 39.0262 25.8292 39.8382 26.4625C40.3253 26.8398 40.3253 27.1901 39.9464 27.6617C38.8368 29.063 38.8503 29.063 37.4971 27.9446C34.29 25.2768 31.083 22.6225 27.8894 19.9547C27.6323 19.7391 27.3617 19.537 27.064 19.2945C24.6688 21.2886 22.2872 23.2557 19.9056 25.2364C18.6336 26.3008 17.3345 27.3383 16.076 28.4297C15.5483 28.8743 15.1964 28.8608 14.7499 28.3219C13.6538 27.0149 13.6267 27.0419 14.9664 25.937C18.4577 23.0402 21.9354 20.1433 25.4266 17.2599C26.6716 16.2224 27.4835 16.2359 28.7149 17.2599C29.838 18.1896 30.9747 19.1328 32.0979 20.0625C32.1114 20.0625 32.152 20.0625 32.3144 20.0759L32.3009 20.0625Z"
                fill="white"
              />
              <defs>
                <linearGradient
                  id="paint0_linear_87_3387"
                  x1="0.676758"
                  y1="26.9476"
                  x2="53.4514"
                  y2="26.9476"
                  gradientUnits="userSpaceOnUse"
                >
                  <stop stop-color="#FF007B" />
                  <stop offset="1" stop-color="#7D009A" />
                </linearGradient>
                <linearGradient
                  id="paint1_linear_87_3387"
                  x1="0.000159637"
                  y1="26.9476"
                  x2="54.128"
                  y2="26.9476"
                  gradientUnits="userSpaceOnUse"
                >
                  <stop stop-color="#FF007B" />
                  <stop offset="1" stop-color="#7D009A" />
                </linearGradient>
              </defs>
            </svg>