            <svg
              className="notActive"
              width="55"
              height="55"
              viewBox="0 0 55 55"
              fill="none"
              xmlns="http://www.w3.org/2000/svg"
            >
              <path
                d="M27.8343 54.3207C42.4625 54.3207 54.321 42.4587 54.321 27.8261C54.321 13.1936 42.4625 1.33154 27.8343 1.33154C13.2061 1.33154 1.34766 13.1936 1.34766 27.8261C1.34766 42.4587 13.2061 54.3207 27.8343 54.3207Z"
                fill="url(#paint0_linear_303_4)"
                stroke="url(#paint1_linear_303_4)"
                stroke-miterlimit="10"
              />
              <g clip-path="url(#clip0_303_4)">
                <path
                  d="M21 42C15.49 42 11 37.51 11 32C11 26.49 15.49 22 21 22C26.51 22 31 26.49 31 32C31 37.51 26.51 42 21 42ZM21 24C16.59 24 13 27.59 13 32C13 36.41 16.59 40 21 40C25.41 40 29 36.41 29 32C29 27.59 25.41 24 21 24Z"
                  fill="white"
                />
                <path
                  d="M37 41H30C29.45 41 29 40.55 29 40C29 39.45 29.45 39 30 39H37V36H32.62C32.07 36 31.62 35.55 31.62 35C31.62 34.45 32.07 34 32.62 34H37C38.1 34 39 34.9 39 36V39C39 40.1 38.1 41 37 41Z"
                  fill="white"
                />
                <path
                  d="M39 36H32.62C32.07 36 31.62 35.55 31.62 35C31.62 34.45 32.07 34 32.62 34H39V31H32.83C32.28 31 31.83 30.55 31.83 30C31.83 29.45 32.28 29 32.83 29H39C40.1 29 41 29.9 41 31V34C41 35.1 40.1 36 39 36Z"
                  fill="white"
                />
                <path
                  d="M36 31H32.83C32.28 31 31.83 30.55 31.83 30C31.83 29.45 32.28 29 32.83 29H36V26H30.75C30.2 26 29.75 25.55 29.75 25C29.75 24.45 30.2 24 30.75 24H36C37.1 24 38 24.9 38 26V29C38 30.1 37.1 31 36 31Z"
                  fill="white"
                />
                <path
                  d="M38 26H30.75C30.2 26 29.75 25.55 29.75 25C29.75 24.45 30.2 24 30.75 24H38V21H22C22 21 21.91 21 21.86 21C21.31 21.08 20.83 20.7 20.76 20.15C20.68 19.6 21.09 19.1 21.64 19.02C21.78 19 21.92 19 22.07 19.02H38.01C39.11 19.02 40.01 19.92 40.01 21.02V24.02C40.01 25.12 39.11 26.02 38.01 26.02L38 26Z"
                  fill="white"
                />
                <path
                  d="M37 21H21C19.9 21 19 20.1 19 19V16C19 14.9 19.9 14 21 14H37C38.1 14 39 14.9 39 16V19C39 20.1 38.1 21 37 21ZM21 16V19H37V16H21Z"
                  fill="white"
                />
              </g>
              <defs>
                <linearGradient
                  id="paint0_linear_303_4"
                  x1="1.34766"
                  y1="27.8261"
                  x2="54.321"
                  y2="27.8261"
                  gradientUnits="userSpaceOnUse"
                >
                  <stop stop-color="#FF007B" />
                  <stop offset="1" stop-color="#7D009A" />
                </linearGradient>
                <linearGradient
                  id="paint1_linear_303_4"
                  x1="0.668511"
                  y1="27.8261"
                  x2="55.0002"
                  y2="27.8261"
                  gradientUnits="userSpaceOnUse"
                >
                  <stop stop-color="#FF007B" />
                  <stop offset="1" stop-color="#7D009A" />
                </linearGradient>
                <clipPath id="clip0_303_4">
                  <rect
                    width="30"
                    height="28"
                    fill="white"
                    transform="translate(11 14)"
                  />
                </clipPath>
              </defs>
            </svg>