<svg width="174" height="43" viewBox="0 0 174 43" fill="none" xmlns="http://www.w3.org/2000/svg">
<g clip-path="url(#clip0_455_415)">
<path d="M23.8409 21.3619C23.8409 26.3505 23.8409 31.3391 23.8409 36.3382C23.8409 37.5139 23.9109 38.6684 24.5809 39.6746C25.1709 40.5643 26.0009 40.9985 27.0109 41.0303C27.7109 41.0515 28.4109 41.0515 29.1209 41.0303C29.5209 41.0197 29.7809 41.0832 29.7509 41.6022C29.7209 42.0788 29.7909 42.5872 29.1509 42.6508C29.0209 42.6614 28.8909 42.6508 28.7709 42.6508C23.4909 42.6508 18.2209 42.6508 12.9409 42.6508C12.0709 42.6508 11.7709 42.2059 12.0109 41.3057C12.1009 40.9456 12.3609 41.0515 12.5809 41.0303C13.4909 40.9879 14.4109 41.1362 15.3109 40.9456C16.7109 40.649 17.4109 39.611 17.7409 38.2341C17.8509 37.7575 17.9009 37.2703 17.9009 36.7619C17.9009 26.467 17.9009 16.172 17.9009 5.8771C17.9009 5.10392 17.8009 4.35193 17.5109 3.65289C16.9509 2.30777 15.9709 1.60873 14.5709 1.61932C13.9109 1.61932 13.2509 1.61932 12.5909 1.61932C12.2709 1.61932 11.9809 1.61932 12.0209 1.1427C12.0609 0.697862 11.8609 0.147104 12.5109 0.00941465C12.6109 -0.0117683 12.7209 0.00941465 12.8309 0.00941465C18.1909 0.00941465 23.5509 0.00941465 28.9109 0.00941465C29.4909 0.00941465 29.7509 0.210653 29.7809 0.856734C29.8009 1.49222 29.6109 1.66169 29.0209 1.6511C28.1509 1.62991 27.2709 1.51341 26.4209 1.72524C24.9409 2.09594 23.9509 3.44106 23.9209 5.17807C23.8709 7.92126 23.8809 10.6645 23.8709 13.4077C23.8709 16.0555 23.8709 18.714 23.8709 21.3619H23.8409ZM0.00090835 22.1456C0.190908 27.632 2.46091 31.7521 7.16091 34.2729C10.1909 35.904 13.4709 36.4548 16.8209 36.709C17.4209 36.7513 17.6009 36.5607 17.5409 35.957C17.4909 35.4486 17.5209 34.919 17.5409 34.4106C17.5509 34.0611 17.4709 33.9022 17.1009 33.8492C16.5509 33.7751 16.0209 33.6268 15.4809 33.468C10.2909 31.911 6.81091 28.6276 6.22091 22.7282C5.74091 17.9514 7.37092 14.0537 11.2009 11.3105C12.9709 10.0396 14.9709 9.36171 17.0509 8.95923C17.4209 8.88509 17.5509 8.7474 17.5309 8.35551C17.5009 7.81535 17.4909 7.27518 17.5309 6.73502C17.5609 6.24781 17.4509 6.06775 16.9509 6.09953C14.3209 6.22662 11.7509 6.63969 9.27091 7.56115C6.63091 8.53557 4.31092 10.029 2.59092 12.4015C0.68092 15.0387 -0.0290916 18.0891 0.00090835 21.3619C0.00090835 21.6267 0.00090835 21.902 0.00090835 22.1668V22.1456ZM41.6309 20.5887C41.4609 16.2674 40.0009 12.6133 36.6709 9.92306C34.9109 8.5038 32.8909 7.67766 30.7909 7.03158C28.9509 6.47023 27.0509 6.21603 25.1309 6.09953C24.1609 6.03598 24.1609 6.04657 24.1509 7.11631C24.1509 7.47642 24.1809 7.83653 24.1509 8.19664C24.1009 8.68385 24.2509 8.88509 24.7409 8.991C27.1409 9.4888 29.3809 10.3891 31.3409 12.0202C36.7709 16.511 36.8909 25.948 31.5509 30.6082C29.5809 32.3241 27.3009 33.2879 24.8209 33.7751C24.3109 33.881 24.0809 34.0611 24.1509 34.633C24.2109 35.1414 24.1909 35.671 24.1509 36.1794C24.1209 36.656 24.3009 36.7407 24.7109 36.709C26.5809 36.5713 28.4409 36.3594 30.2609 35.8828C33.2409 35.099 35.9809 33.8069 38.1509 31.445C40.7209 28.6488 41.6209 25.196 41.6309 21.4042C41.6309 21.1395 41.6309 20.8641 41.6309 20.5993V20.5887Z" fill="url(#paint0_linear_455_415)"/>
<path d="M50.1209 32.6736C49.9809 32.5253 49.9009 32.3347 49.9009 32.1122V10.781C49.9009 10.5374 49.9709 10.3467 50.1009 10.1878C50.2309 10.0396 50.4109 9.95483 50.6409 9.95483H64.0709C64.3009 9.95483 64.4809 10.029 64.6309 10.1878C64.7709 10.3361 64.8509 10.5374 64.8509 10.781V13.0793C64.8509 13.3229 64.7809 13.5136 64.6309 13.6513C64.4909 13.789 64.3009 13.8631 64.0709 13.8631H54.1409V20.0909H63.4509C63.6809 20.0909 63.8609 20.165 64.0109 20.3239C64.1509 20.4722 64.2309 20.6734 64.2309 20.917V23.2154C64.2309 23.459 64.1609 23.6496 64.0109 23.7873C63.8709 23.925 63.6809 23.9992 63.4509 23.9992H54.1409V32.1228C54.1409 32.3664 54.0709 32.5571 53.9209 32.6948C53.7809 32.8325 53.5909 32.9066 53.3609 32.9066H50.6409C50.4309 32.9066 50.2609 32.8325 50.1109 32.6736H50.1209Z" fill="white"/>
<path d="M68.221 12.8145C68.081 12.6663 68.001 12.4756 68.001 12.2532V9.89129C68.001 9.66886 68.071 9.48881 68.221 9.32994C68.361 9.18166 68.541 9.09692 68.751 9.09692H71.571C71.781 9.09692 71.961 9.17106 72.111 9.32994C72.261 9.47822 72.341 9.66886 72.341 9.89129V12.2532C72.341 12.4756 72.271 12.6557 72.121 12.8145C71.971 12.9734 71.791 13.0476 71.561 13.0476H68.741C68.531 13.0476 68.361 12.9734 68.211 12.8145H68.221ZM68.341 32.6736C68.201 32.5253 68.121 32.3347 68.121 32.1122V16.6487C68.121 16.4262 68.191 16.2462 68.341 16.0873C68.481 15.939 68.661 15.8543 68.871 15.8543H71.441C71.671 15.8543 71.851 15.9284 71.981 16.0661C72.111 16.2038 72.181 16.3945 72.181 16.6381V32.1122C72.181 32.3347 72.111 32.5147 71.981 32.6736C71.851 32.8219 71.671 32.9066 71.441 32.9066H68.871C68.661 32.9066 68.491 32.8325 68.341 32.6736Z" fill="white"/>
<path d="M80.2611 30.9048V32.1122C80.2611 32.3347 80.1911 32.5147 80.0611 32.6736C79.9311 32.8219 79.7511 32.9066 79.5211 32.9066H77.0811C76.8711 32.9066 76.7011 32.8325 76.5511 32.6736C76.4111 32.5253 76.3311 32.3347 76.3311 32.1122V10.4209C76.3311 10.1773 76.4011 9.98661 76.5511 9.84892C76.6911 9.71124 76.8711 9.63708 77.0811 9.63708H79.7111C79.9411 9.63708 80.1211 9.71124 80.2511 9.84892C80.3811 9.98661 80.4511 10.1773 80.4511 10.4209V17.6972C81.6311 16.2568 83.2111 15.5365 85.2211 15.5365C87.2311 15.5365 88.9011 16.2568 90.0211 17.6972C91.1311 19.1377 91.7311 21.0124 91.8111 23.3001C91.8311 23.5649 91.8411 23.9144 91.8411 24.3487C91.8411 24.8041 91.8311 25.1642 91.8111 25.429C91.7311 27.7909 91.1311 29.6762 90.0211 31.0955C88.9111 32.5147 87.3111 33.2244 85.2211 33.2244C83.1311 33.2244 81.4411 32.4512 80.2711 30.8942L80.2611 30.9048ZM87.6211 25.3655C87.6411 25.143 87.6511 24.8147 87.6511 24.3804C87.6511 23.9462 87.6411 23.6179 87.6211 23.3954C87.4811 20.4934 86.2911 19.0317 84.0611 19.0317C82.9011 19.0317 82.0211 19.4236 81.4111 20.1968C80.8011 20.97 80.4811 21.902 80.4411 23.0036L80.4111 24.2534L80.4411 25.5349C80.5011 26.7106 80.8211 27.7062 81.4011 28.5217C81.9811 29.3267 82.8611 29.7292 84.0611 29.7292C86.2911 29.7292 87.4711 28.2781 87.6211 25.3655Z" fill="white"/>
<path d="M98.4208 32.3453C97.1008 31.7521 96.1008 30.979 95.4208 30.0151C94.7408 29.0513 94.3808 28.0133 94.3408 26.9012C94.3408 26.7 94.4008 26.5411 94.5308 26.414C94.6608 26.2869 94.8108 26.2128 94.9908 26.2128H97.7408C97.9908 26.2128 98.1808 26.2657 98.3108 26.3611C98.4408 26.4564 98.5708 26.6153 98.7008 26.8377C98.9108 27.5791 99.3808 28.204 100.121 28.7018C100.861 29.1996 101.871 29.4538 103.151 29.4538C104.611 29.4538 105.721 29.1996 106.461 28.6806C107.201 28.1722 107.571 27.452 107.571 26.5305C107.571 25.9162 107.381 25.4184 107.001 25.0265C106.621 24.6347 106.051 24.2957 105.301 24.0098C104.551 23.7238 103.431 23.3743 101.941 22.9612C99.5108 22.3469 97.7308 21.5313 96.6008 20.5146C95.4808 19.4978 94.9108 18.0467 94.9108 16.172C94.9108 14.9011 95.2308 13.7784 95.8808 12.7934C96.5308 11.8083 97.4708 11.0352 98.7008 10.4632C99.9308 9.89128 101.361 9.61591 102.991 9.61591C104.621 9.61591 106.151 9.93365 107.381 10.5691C108.621 11.2046 109.561 11.999 110.211 12.9416C110.861 13.8949 111.201 14.8375 111.251 15.7802C111.251 15.9814 111.191 16.1403 111.061 16.2674C110.941 16.3945 110.781 16.4686 110.601 16.4686H107.721C107.291 16.4686 106.991 16.2568 106.821 15.8437C106.701 15.1447 106.281 14.5621 105.581 14.0855C104.881 13.6195 104.011 13.3759 102.981 13.3759C101.821 13.3759 100.921 13.6089 100.261 14.0643C99.6008 14.5198 99.2708 15.187 99.2708 16.0661C99.2708 16.6804 99.4308 17.1782 99.7608 17.5701C100.091 17.962 100.611 18.3115 101.321 18.6187C102.031 18.9258 103.061 19.2648 104.401 19.6355C106.221 20.0697 107.661 20.5675 108.751 21.1077C109.831 21.6584 110.631 22.3469 111.151 23.173C111.671 23.9992 111.921 25.0583 111.921 26.3505C111.921 27.7486 111.551 28.9666 110.821 30.0045C110.091 31.0425 109.061 31.8369 107.731 32.377C106.401 32.9278 104.871 33.1926 103.131 33.1926C101.291 33.1926 99.7208 32.896 98.4008 32.3029L98.4208 32.3453Z" fill="white"/>
<path d="M118.891 32.6948C118.741 32.5571 118.611 32.3558 118.501 32.091L114.081 16.8817C114.061 16.8181 114.051 16.7228 114.051 16.5851C114.051 16.3839 114.121 16.225 114.251 16.0767C114.381 15.9284 114.531 15.8649 114.701 15.8649H116.991C117.221 15.8649 117.401 15.9284 117.551 16.0661C117.691 16.1932 117.791 16.3415 117.831 16.4898L120.861 27.3355L124.081 16.5851C124.141 16.3839 124.251 16.225 124.401 16.0767C124.551 15.939 124.761 15.8649 125.001 15.8649H126.551C126.801 15.8649 127.001 15.939 127.151 16.0767C127.301 16.2144 127.411 16.3839 127.471 16.5851L130.691 27.3355L133.721 16.4898C133.741 16.3415 133.831 16.1932 133.981 16.0661C134.131 15.939 134.311 15.8649 134.521 15.8649H136.811C137.001 15.8649 137.161 15.939 137.291 16.0767C137.421 16.2144 137.491 16.3839 137.491 16.5851L137.431 16.8817L133.011 32.091C132.931 32.3558 132.811 32.5571 132.651 32.6948C132.501 32.8324 132.281 32.9066 132.021 32.9066H130.011C129.471 32.9066 129.131 32.6312 128.991 32.091L125.771 21.7326L122.551 32.091C122.381 32.6418 122.031 32.9066 121.501 32.9066H119.521C119.251 32.9066 119.041 32.8324 118.891 32.6948Z" fill="white"/>
<path d="M141.791 32.5677C140.911 32.1228 140.221 31.5191 139.721 30.7459C139.211 29.9833 138.961 29.136 138.961 28.2251C138.961 26.7423 139.531 25.5349 140.661 24.624C141.791 23.7026 143.351 23.0883 145.331 22.7599L149.571 22.1033V21.4148C149.571 20.451 149.341 19.7308 148.891 19.2541C148.441 18.7775 147.701 18.5339 146.691 18.5339C146.011 18.5339 145.461 18.6716 145.031 18.947C144.611 19.2224 144.271 19.4872 144.021 19.7519C143.771 20.0379 143.611 20.218 143.521 20.3133C143.441 20.5781 143.281 20.7052 143.061 20.7052H140.681C140.491 20.7052 140.331 20.6416 140.201 20.5039C140.071 20.3768 140.001 20.1968 140.001 19.985C140.021 19.4342 140.271 18.8199 140.761 18.1209C141.241 17.4218 141.991 16.8181 143.001 16.3203C144.011 15.8225 145.251 15.5683 146.711 15.5683C149.141 15.5683 150.921 16.1508 152.031 17.3053C153.141 18.4598 153.701 19.985 153.701 21.8596V32.1546C153.701 32.377 153.631 32.5571 153.501 32.7159C153.371 32.8642 153.191 32.9489 152.961 32.9489H150.451C150.241 32.9489 150.071 32.8748 149.921 32.7159C149.781 32.5677 149.701 32.377 149.701 32.1546V30.873C149.251 31.5721 148.601 32.144 147.771 32.5888C146.941 33.0337 145.901 33.2561 144.661 33.2561C143.611 33.2561 142.641 33.0337 141.771 32.5888L141.791 32.5677ZM148.521 28.9454C149.241 28.1616 149.601 27.0071 149.601 25.5031V24.8147L146.511 25.3337C145.311 25.5349 144.411 25.8421 143.801 26.2869C143.191 26.7211 142.891 27.2613 142.891 27.8968C142.891 28.5958 143.171 29.1466 143.731 29.5385C144.291 29.9304 144.961 30.1316 145.741 30.1316C146.871 30.1316 147.801 29.7397 148.521 28.956V28.9454Z" fill="white"/>
<path d="M157.921 38.9226C157.781 38.7849 157.701 38.5943 157.701 38.3506V16.6487C157.701 16.4051 157.771 16.2144 157.921 16.0767C158.061 15.939 158.241 15.8649 158.451 15.8649H160.891C161.121 15.8649 161.301 15.939 161.431 16.0767C161.561 16.2144 161.631 16.4051 161.631 16.6487V17.962C162.791 16.3415 164.441 15.5366 166.581 15.5366C168.721 15.5366 170.261 16.2356 171.381 17.6125C172.491 19 173.091 20.8747 173.171 23.2366C173.191 23.5014 173.201 23.8827 173.201 24.3805C173.201 24.8783 173.191 25.3019 173.171 25.5561C173.091 27.8545 172.491 29.6974 171.381 31.1061C170.271 32.5147 168.671 33.2244 166.581 33.2244C164.491 33.2244 162.911 32.4512 161.811 30.8942V38.3295C161.811 38.5731 161.741 38.7637 161.611 38.9014C161.481 39.0391 161.301 39.1132 161.071 39.1132H158.441C158.231 39.1132 158.061 39.0391 157.911 38.9014L157.921 38.9226ZM169.001 25.3655C169.021 25.143 169.031 24.8147 169.031 24.3805C169.031 23.9462 169.021 23.6179 169.001 23.3955C168.861 20.4934 167.671 19.0318 165.441 19.0318C164.241 19.0318 163.361 19.4342 162.781 20.2392C162.201 21.0441 161.881 22.0397 161.821 23.226L161.791 24.4758L161.821 25.7574C161.861 26.8483 162.191 27.7803 162.791 28.5641C163.401 29.3373 164.281 29.7292 165.441 29.7292C167.671 29.7292 168.851 28.2781 169.001 25.3655Z" fill="white"/>
</g>
<defs>
<linearGradient id="paint0_linear_455_415" x1="0.000908364" y1="21.3301" x2="41.6309" y2="21.3301" gradientUnits="userSpaceOnUse">
<stop stop-color="#FF007B"/>
<stop offset="1" stop-color="#7D009A"/>
</linearGradient>
<clipPath id="clip0_455_415">
<rect width="174" height="43" fill="white"/>
</clipPath>
</defs>
</svg>
